<svg width="27" height="39" viewBox="0 0 27 39" fill="none" xmlns="http://www.w3.org/2000/svg">
<path fill-rule="evenodd" clip-rule="evenodd" d="M13.5316 5.8718C7.21619 6.11663 6.4205 8.38685 7.70863 12.2512C7.81157 12.5795 8.03692 13.0914 8.67125 12.8244C11.6426 11.6169 15.4875 11.6336 18.3948 12.8244C19.0291 13.0914 19.2545 12.5795 19.3686 12.2512C20.5593 8.55378 19.8304 5.8718 13.5316 5.8718ZM8.43477 14.3378C11.7539 12.7298 16.4751 12.7409 16.2359 14.2878C16.0523 15.4368 14.4943 14.3907 11.0361 15.6705C6.34816 17.4121 11.957 16.8974 14.0046 17.3398C14.166 17.3926 14.1409 17.5929 14.0046 17.6152C11.8457 18.077 7.57508 17.554 6.56239 18.6891C4.95431 20.4808 9.75628 19.5182 11.8651 19.9689C12.0209 20.0218 12.0098 20.197 11.8651 20.2443C9.81749 20.6839 5.41614 20.0078 4.81242 21.3822C4.12523 22.9486 9.08022 22.2002 10.9443 22.6008C11.1001 22.6537 11.0861 22.8289 10.9443 22.8762C8.67125 23.3575 4.28938 22.3532 4.07515 24.0447C3.8498 25.817 8.46537 24.7403 10.7495 25.2327C10.8858 25.255 10.9109 25.4553 10.7495 25.5081C8.69072 25.9477 3.83033 25.088 4.10576 26.8909C4.31164 28.14 9.00789 27.4445 10.9637 27.8646C11.1001 27.8869 11.1251 28.0872 10.9637 28.14C9.09135 28.5407 4.14749 27.7811 4.85137 29.3586C5.53856 30.9055 9.73402 30.0041 12.0488 30.4965C12.174 30.516 12.1962 30.7246 12.0488 30.7719C9.4892 31.3145 5.01552 30.2489 6.55126 31.971C7.91172 33.4873 11.5786 32.597 14.0658 33.1284C14.5499 33.2091 14.3301 33.6654 10.5047 33.6292C8.25393 33.6097 9.09135 34.2023 10.2988 34.6948C14.0157 36.3752 15.7796 35.1955 16.0411 36.2722C16.2609 37.1347 14.6779 37.591 13.7264 37.5325C3.36571 37.5325 -2.14571 25.4553 4.32833 17.5651C5.07672 16.6637 5.11567 16.0183 4.59541 14.7913C0.0827861 4.14688 9.48085 1.05592 14.1854 2.13261C14.6028 2.22998 14.5221 2.82814 14.1131 2.82814C7.54448 2.93108 4.01117 7.41589 6.03934 13.0191C6.67367 14.7691 7.22453 14.9221 8.43477 14.3378ZM23.7894 16.7249C22.6181 15.3672 25.0553 13.3057 24.8132 9.07682C24.2123 -1.87367 2.88162 -1.90149 2.25007 9.07682C2.00803 13.3057 4.44518 15.3756 3.28503 16.7249C-3.71762 25.1381 1.7632 38.6259 13.5316 38.6259C25.275 38.6259 30.8032 25.1965 23.7894 16.7249Z" fill="#1D2229"/>
</svg>
