<svg width="27" height="31" viewBox="0 0 27 31" fill="none" xmlns="http://www.w3.org/2000/svg">
<path d="M7.21357 16.205C6.30573 16.205 5.55957 16.9387 5.55957 17.859V19.3389C5.55957 18.431 4.82584 17.6973 3.918 17.6973C3.01017 17.6973 2.26401 18.431 2.26401 19.3389V27.8078C2.26401 28.7157 2.99773 29.4494 3.918 29.4494C4.82584 29.4494 5.55957 28.7157 5.55957 27.8078V29.2877C5.55957 30.1956 6.2933 30.9293 7.21357 30.9293C8.1214 30.9293 8.85513 30.1956 8.85513 29.2877V17.859C8.86756 16.9387 8.1214 16.205 7.21357 16.205ZM2.87337 23.3433C2.61222 23.3433 2.61222 22.3733 2.61222 19.9607C2.61222 18.6176 3.10966 18.3813 3.24646 18.4683C3.40813 18.5678 3.18428 18.6051 3.20915 19.9607C3.25889 23.1443 3.17184 23.3433 2.87337 23.3433ZM6.25599 21.8261C5.99483 21.8261 5.99483 20.8561 5.99483 18.4435C5.99483 17.1004 6.49227 16.8641 6.62907 16.9511C6.79074 17.0506 6.56689 17.0879 6.59176 18.4435C6.64151 21.6271 6.55445 21.8261 6.25599 21.8261Z" fill="#172535"/>
<path d="M9.30283 22.0748V25.0595H17.6972V22.0748H9.30283Z" fill="#172535"/>
<path d="M1.82874 22.0748H0.125V25.0595H1.82874V22.0748Z" fill="#172535"/>
<path d="M26.875 22.0748H25.1713V25.0595H26.875V22.0748Z" fill="#172535"/>
<path d="M23.082 17.6849C22.1742 17.6849 21.4404 18.4186 21.4404 19.3264V17.859C21.4404 16.9511 20.7067 16.205 19.7864 16.205C18.8786 16.205 18.1449 16.9387 18.1449 17.859V29.2753C18.1449 30.1831 18.8786 30.9169 19.7864 30.9169C20.6943 30.9169 21.4404 30.1831 21.4404 29.2753V27.7954C21.4404 28.7032 22.1742 29.437 23.082 29.437C23.9898 29.437 24.736 28.7032 24.736 27.7954V19.3264C24.736 18.4186 23.9898 17.6849 23.082 17.6849ZM18.7916 21.8261C18.5304 21.8261 18.5304 20.8561 18.5304 18.4435C18.5304 17.1004 19.0278 16.8641 19.1646 16.9511C19.3263 17.0506 19.1025 17.0879 19.1273 18.4435C19.1771 21.6271 19.09 21.8261 18.7916 21.8261ZM22.0001 23.3433C21.7389 23.3433 21.7389 22.3733 21.7389 19.9607C21.7389 18.6176 22.2363 18.3813 22.3731 18.4683C22.5348 18.5678 22.311 18.6051 22.3358 19.9607C22.3856 23.1443 22.2985 23.3433 22.0001 23.3433Z" fill="#172535"/>
<path d="M4.06724 17.0755C4.27865 15.3593 4.92533 13.6556 6.16894 12.1508C6.76587 11.4295 6.87779 10.8823 6.38035 9.93719C2.8485 3.23414 10.2728 0.237047 14.0285 1.09514C14.3643 1.16975 14.3021 1.65476 13.9664 1.65476C8.71833 1.72938 5.90778 4.06736 7.52447 8.53191C8.03435 9.92475 8.46961 10.0491 9.43962 9.58898C12.0885 8.30806 15.8442 8.3205 15.6577 9.55167C15.5706 10.1237 13.9415 10.4222 12.7601 10.559C12.4616 10.5714 12.1756 10.5963 11.8895 10.646C11.6657 10.6585 11.5164 10.6709 11.5164 10.6709V10.7082C8.60641 11.2678 6.31817 13.4939 5.572 16.3418C5.98239 15.8941 6.55445 15.5832 7.21357 15.5832C8.46961 15.5832 9.47693 16.6029 9.47693 17.859V21.453H17.5106V17.859C17.5106 16.6029 18.5304 15.5832 19.774 15.5832C20.8435 15.5832 21.7513 16.3293 21.9876 17.3367C22.311 17.1626 22.6841 17.0631 23.0696 17.0631C23.4302 17.0631 23.7536 17.1501 24.0645 17.2993C23.8779 15.2598 23.1193 13.2452 21.6643 11.4793C20.7316 10.3973 22.6716 9.99937 22.4851 6.62919C22.0125 -2.10094 4.99994 -2.12581 4.5025 6.62919C4.31596 9.99937 6.25599 10.4098 5.32328 11.4793C3.86826 13.2328 3.10966 15.2598 2.92312 17.2993C3.22158 17.1501 3.55736 17.0631 3.918 17.0631C3.96775 17.0631 4.01749 17.0755 4.06724 17.0755ZM18.1449 7.91011C18.0578 8.17127 17.8713 8.58166 17.3738 8.37024C15.0483 7.4251 11.989 7.41266 9.62616 8.37024C9.11629 8.58166 8.94218 8.17127 8.85513 7.91011C7.82293 4.8384 8.45717 4.26634 13.4938 4.0798C18.518 4.0798 19.1025 4.97519 18.1449 7.91011Z" fill="#172535"/>
</svg>
