<svg width="29" height="39" viewBox="0 0 29 39" fill="none" xmlns="http://www.w3.org/2000/svg">
<path d="M22.6946 26.5762V22.5577H28.7392C28.3876 20.0628 27.3662 17.6015 25.5746 15.4248C24.3188 13.968 26.9309 13.4322 26.6797 8.89464C26.0434 -2.85959 3.13775 -2.89308 2.468 8.89464C2.21684 13.4322 4.82889 13.9848 3.57309 15.4248C-3.94492 24.4497 1.93219 38.9332 14.5738 38.9332C22.5607 38.9332 27.8518 33.1398 28.7559 26.5762H22.6946ZM20.8361 10.6193C20.7189 10.9709 20.4677 11.5234 19.7979 11.2388C16.6836 9.96625 12.5478 9.94951 9.36649 11.2388C8.67999 11.5234 8.44557 10.9709 8.32837 10.6193C6.95536 6.48352 7.8093 5.7133 14.5738 5.46214C21.3384 5.46214 22.1253 6.6677 20.8361 10.6193ZM14.7915 37.7611C3.67356 37.7611 -2.23704 24.8014 4.71168 16.3289C5.51539 15.3578 5.66608 14.6211 4.99633 13.3485C0.241055 4.32355 10.2372 0.288268 15.2938 1.4436C15.7459 1.54406 15.6622 2.19707 15.2101 2.19707C8.16093 2.29754 4.36006 5.44539 6.53677 11.4565C7.22327 13.3318 7.8093 13.4992 9.11533 12.8797C12.6818 11.1551 17.7384 11.1718 17.4873 12.8295C17.3701 13.5997 15.1766 14.0015 13.586 14.1857C13.1841 14.2025 12.799 14.2359 12.4139 14.3029C12.1125 14.3197 11.9116 14.3364 11.9116 14.3364V14.3866C7.1228 15.3578 3.52286 19.5773 3.52286 24.6507C3.52286 29.4394 6.72095 33.458 11.1079 34.7138V34.7472C15.0929 36.5556 16.985 35.283 17.2696 36.4384C17.504 37.3258 15.8129 37.8114 14.7915 37.7611ZM12.6483 22.5577V26.5762H10.3376V22.5577H12.6483ZM22.1086 32.2524C22.1086 33.4747 21.1207 34.4626 19.8984 34.4626C18.6761 34.4626 17.6715 33.4747 17.6715 32.2524V30.2599C17.6715 31.4822 16.6836 32.4701 15.4613 32.4701C14.239 32.4701 13.2343 31.4822 13.2343 30.2599V18.8573C13.2343 17.635 14.2222 16.6471 15.4613 16.6471C16.6836 16.6471 17.6715 17.635 17.6715 18.8573V16.8647C17.6715 15.6424 18.6594 14.6378 19.8984 14.6378C21.1207 14.6378 22.1086 15.6257 22.1086 16.8647V32.2524Z" fill="#172535"/>
<path d="M19.0947 15.6759C18.9105 15.5587 18.2408 15.8601 18.2408 17.6852C18.2408 20.9335 18.2408 22.2395 18.5924 22.2395C18.9942 22.2395 19.1114 21.9716 19.0445 17.6852C19.011 15.8601 19.3291 15.8099 19.0947 15.6759Z" fill="#172535"/>
<path d="M14.5571 17.7019C14.3729 17.5847 13.7032 17.8861 13.7032 19.7112C13.7032 22.9595 13.7032 24.2655 14.0548 24.2655C14.4566 24.2655 14.5738 23.9976 14.5069 19.7112C14.4734 17.9029 14.7748 17.8359 14.5571 17.7019Z" fill="#172535"/>
</svg>
