<svg width="41" height="29" viewBox="0 0 41 29" fill="none" xmlns="http://www.w3.org/2000/svg">
<path fill-rule="evenodd" clip-rule="evenodd" d="M20.5713 4.47563C15.9986 4.65241 15.4211 6.29056 16.3522 9.09546C16.4229 9.33117 16.5879 9.7083 17.0475 9.50795C19.1924 8.63583 21.9737 8.64762 24.0833 9.50795C24.5429 9.69651 24.7079 9.33117 24.7904 9.09546C25.6508 6.4202 25.1204 4.47563 20.5713 4.47563ZM16.8825 10.604C19.2867 9.43723 22.7044 9.44902 22.5277 10.5686C22.398 11.4054 21.2666 10.6393 18.7681 11.5704C15.374 12.8314 19.4281 12.4543 20.9131 12.7725C21.0309 12.8078 21.0073 12.961 20.9131 12.9728C19.3456 13.3028 16.2579 12.9257 15.5272 13.7507C14.3604 15.047 17.8371 14.3517 19.3574 14.6817C19.4753 14.717 19.4635 14.8467 19.3574 14.882C17.8725 15.2002 14.6904 14.717 14.2544 15.707C13.7594 16.8384 17.3421 16.2963 18.6856 16.5909C18.8035 16.6263 18.7917 16.7559 18.6856 16.7913C17.0475 17.1448 13.8772 16.4141 13.7123 17.6398C13.5473 18.9244 16.8943 18.1466 18.5442 18.5001C18.6385 18.5119 18.6621 18.6651 18.5442 18.7005C17.0593 19.0187 13.5355 18.3941 13.7358 19.7022C13.889 20.6097 17.2832 20.1029 18.6974 20.4093C18.7917 20.4211 18.8153 20.5743 18.6974 20.6097C17.3421 20.9043 13.7712 20.3504 14.2779 21.4936C14.7729 22.6132 17.8135 21.965 19.487 22.3186C19.5813 22.3303 19.5931 22.4836 19.487 22.5189C17.6368 22.9078 14.3958 22.1418 15.5154 23.391C16.5054 24.4871 19.1571 23.8389 20.9484 24.2278C21.302 24.2867 21.137 24.6167 18.3674 24.5931C16.7411 24.5813 17.3421 25.0056 18.2142 25.3592C20.9013 26.5731 22.1741 25.7245 22.3744 26.5023C22.5277 27.127 21.3845 27.4569 20.7009 27.4098C13.2055 27.4098 9.22206 18.6769 13.9008 12.961C14.4429 12.3128 14.4665 11.8414 14.0894 10.9575C10.8249 3.26174 17.625 1.02254 21.0309 1.80037C21.3373 1.87108 21.2784 2.30713 20.9838 2.30713C16.2343 2.37784 13.6769 5.63058 15.1383 9.67294C15.6097 10.9104 16.0104 11.0282 16.8825 10.604ZM27.9842 12.3246C27.1357 11.3465 28.9035 9.84972 28.7267 6.78554C28.2907 -1.13417 12.8637 -1.15774 12.4041 6.78554C12.2273 9.84972 13.9951 11.3465 13.1466 12.3246C8.07888 18.4058 12.0505 28.1641 20.5595 28.1641C29.0685 28.1759 33.0637 18.453 27.9842 12.3246Z" fill="#1D2229"/>
<path fill-rule="evenodd" clip-rule="evenodd" d="M12.4748 12.3836C13.2998 11.4289 11.5791 9.96757 11.7441 6.98589C11.7912 6.20806 11.9798 5.51273 12.2862 4.89989C8.7035 2.44855 1.60875 3.60351 1.33769 8.37655C1.19627 10.8043 2.59872 11.9946 1.92696 12.7725C-2.10361 17.6162 1.05484 25.3709 7.8196 25.3709C9.5049 25.3709 10.9663 24.8877 12.1566 24.0863C9.74061 20.7865 9.51668 15.9427 12.4748 12.3836ZM11.1902 10.2033C11.1313 10.3918 11.0016 10.6865 10.6363 10.5333C8.96278 9.84971 6.74714 9.83793 5.03827 10.5333C4.67293 10.6865 4.54329 10.3918 4.48436 10.2033C3.74189 7.97585 4.20152 6.66768 7.83139 6.52626C11.4613 6.52626 11.8737 8.07013 11.1902 10.2033Z" fill="#1D2229"/>
<path fill-rule="evenodd" clip-rule="evenodd" d="M28.9742 24.0981C30.1527 24.8995 31.6259 25.3827 33.3112 25.3827C40.0759 25.3827 43.2344 17.628 39.2038 12.7843C38.5321 12.0064 39.9345 10.8161 39.7931 8.38834C39.522 3.6153 32.4273 2.46034 28.8446 4.91168C29.151 5.5363 29.3513 6.21985 29.3867 6.99767C29.5517 9.97935 27.831 11.4407 28.656 12.3953C31.6259 15.9427 31.4138 20.7865 28.9742 24.0981ZM33.3112 6.52626C36.9411 6.66769 37.4007 7.97585 36.6582 10.1915C36.5993 10.3801 36.4697 10.6747 36.1043 10.5215C34.3954 9.82614 32.1798 9.83793 30.5063 10.5215C30.1409 10.6747 30.0113 10.3801 29.9524 10.1915C29.2688 8.07014 29.6813 6.52626 33.3112 6.52626Z" fill="#1D2229"/>
</svg>
